<svg id="Capa_1" data-name="Capa 1" xmlns="http://www.w3.org/2000/svg" viewBox="0 0 54.57366 51.95745"><defs><style>.cls-1{fill:#eb6118;}</style></defs><path class="cls-1" d="M26.48855,10.65864l-6.61712,6.56918,7.93575,7.93575-2.54136,2.54136-7.93575-7.93576-4.24359,4.2436,7.93575,7.93575-2.54136,2.54136-7.93575-7.93575-4.795,4.795a4.795,4.795,0,0,0-.83913,5.802l2.39751,4.53129L1.91408,47.1727l3.38049,3.38049,5.4903-5.39439,4.53129,2.39751h0a4.84966,4.84966,0,0,0,5.802-.79118l20.6905-20.78641Z"/><polygon class="cls-1" points="45.189 19.266 40.898 14.95 44.302 11.57 47.683 14.95 51.063 11.57 40.898 1.404 37.517 4.785 40.898 8.189 37.517 11.57 33.202 7.278 29.03 3.083 25.649 6.487 28.119 8.956 28.119 8.98 43.487 24.348 43.511 24.348 45.98 26.818 49.385 23.437 45.213 19.266 45.189 19.266"/></svg>