<svg width="512" height="448" viewBox="0 0 512 448" fill="none" xmlns="http://www.w3.org/2000/svg">
<rect x="127" y="104" width="258" height="240" fill="#A40101"/>
<path d="M448 0C483.3 0 512 28.65 512 64V384C512 419.3 483.3 448 448 448H64C28.65 448 0 419.3 0 384V64C0 28.65 28.65 0 64 0H448ZM175 176.1L222.1 223.1L175 271C165.7 280.4 165.7 295.6 175 304.1C184.4 314.3 199.6 314.3 208.1 304.1L255.1 257.9L303 304.1C312.4 314.3 327.6 314.3 336.1 304.1C346.3 295.6 346.3 280.4 336.1 271L289.9 223.1L336.1 176.1C346.3 167.6 346.3 152.4 336.1 143C327.6 133.7 312.4 133.7 303 143L255.1 190.1L208.1 143C199.6 133.7 184.4 133.7 175 143C165.7 152.4 165.7 167.6 175 176.1Z" fill="white"/>
</svg>
